<svg xmlns="http://www.w3.org/2000/svg" viewBox="0 0 200 161" height="300" width="300"><defs><linearGradient y2="40" y1="40" x2="127.1" x1="48.9" gradientUnits="userSpaceOnUse" gradientTransform="scale(1.25056 .79964)" id="a"><stop stop-color="#2a3b8f" offset="0"/><stop stop-color="#29abe2" offset="1"/></linearGradient><linearGradient y2="124.8" y1="124.8" x2="48.7" x1="126.9" gradientUnits="userSpaceOnUse" gradientTransform="scale(1.2532 .79796)" id="b"><stop stop-color="#b4d44e" offset="0"/><stop stop-color="#e7f716" offset="1"/></linearGradient></defs><g fill="none" fill-rule="evenodd" stroke-width=".3"><path d="M197 80.2l-21.4 36-30-36.5 30-35.6z" fill="#166da5"/><path d="M173.3 122.4l-32.6-39L121 116l30.4 44.4z" fill="#8fdb69"/><path d="M172.9 37.8l-32.2 39L121 44.2 151.5.2z" fill="#166da5"/><path transform="matrix(1.22972 0 0 1.22972 -.5 -.9)" d="M61.1 31.4H141L123.4.7H78.7zm53.7 31.9H159l-15.9-26.8H98.8" opacity=".9" fill="url(#a)"/><path transform="matrix(1.22972 0 0 1.22972 -.5 -.9)" d="M141.3 100.3H61l17.6 30.5h45zm-26.5-31.9H159l-15.9 26.8H98.8" opacity=".9" fill="url(#b)"/><path d="M96.2 160L49.9 80 96.8.2H46L0 80.1 46.1 160z" fill="#010101"/></g></svg>
