<svg xmlns="http://www.w3.org/2000/svg" width="1024" height="450" viewBox="0 0 270.93 119.06"><defs><marker orient="auto" refY="0" refX="0" id="h" overflow="visible"><path d="M2.3 0l-3.45 2v-4z" fill="#066b00" fill-rule="evenodd" stroke="#066b00" stroke-width=".4pt"/></marker><marker id="g" refX="0" refY="0" orient="auto" overflow="visible"><path d="M2.3 0l-3.45 2v-4z" fill="#066b00" fill-rule="evenodd" stroke="#066b00" stroke-width=".4pt"/></marker><marker orient="auto" refY="0" refX="0" id="f" overflow="visible"><path d="M2.3 0l-3.45 2v-4z" fill="#066b00" fill-rule="evenodd" stroke="#066b00" stroke-width=".4pt"/></marker><marker id="e" refX="0" refY="0" orient="auto" overflow="visible"><path d="M2.3 0l-3.45 2v-4z" fill="#066b00" fill-rule="evenodd" stroke="#066b00" stroke-width=".4pt"/></marker><marker id="d" refX="0" refY="0" orient="auto" overflow="visible"><path d="M2.3 0l-3.45 2v-4z" fill="#e00" fill-rule="evenodd" stroke="#e00" stroke-width=".4pt"/></marker><marker orient="auto" refY="0" refX="0" id="c" overflow="visible"><path d="M2.3 0l-3.45 2v-4z" fill="#e00" fill-rule="evenodd" stroke="#e00" stroke-width=".4pt"/></marker><marker id="b" refX="0" refY="0" orient="auto" overflow="visible"><path d="M2.3 0l-3.45 2v-4z" fill="#e00" fill-rule="evenodd" stroke="#e00" stroke-width=".4pt"/></marker><marker orient="auto" refY="0" refX="0" id="a" overflow="visible"><path d="M2.3 0l-3.45 2v-4z" fill="#e00" fill-rule="evenodd" stroke="#e00" stroke-width=".4pt"/></marker></defs><path fill="#137f00" fill-rule="evenodd" d="M36.34 78.77h203.39v29.09H36.34z"/><path fill="#e88800" fill-rule="evenodd" d="M99.84 50.03h139.51v28.73H99.84z"/><path fill-rule="evenodd" d="M36.34 50.03h63.34v28.73H36.34z"/><path fill="#a50000" fill-rule="evenodd" d="M36.34 22.52h203.39v27.13H36.34z"/><path d="M174.15 108.7V22.67M100.07 108.7V22.67" fill="none" stroke="#616161" stroke-width=".62"/><path d="M36.61 78.9h203.12M36.61 49.65h203.12" fill="none" stroke="#8f8f8f" stroke-width=".95"/><path fill="none" stroke="#000" stroke-width="1.42" d="M36.34 22.52h203.39v85.83H36.34z"/><g style="line-height:1.25;-inkscape-font-specification:'Montserrat Bold'" aria-label="y0" font-weight="700" font-size="9.92" font-family="Oswald Regular" letter-spacing="-.23" word-spacing="0" stroke-width=".23"><path style="-inkscape-font-specification:'Oswald Regular, Bold'" d="M19.17 27.88v-.8q.7 0 .9-.14.2-.14.1-.56L20 25.6l-.57-2.44-.58-2.44h1.08l.77 4.29.74-4.29h1.08l-1.38 6.05q-.13.6-.58.86-.44.26-1.25.26zM24.82 26.53q-.98 0-1.49-.64-.5-.65-.5-1.73V20.7q0-1.11.5-1.74.48-.63 1.5-.63 1 0 1.49.63.5.63.5 1.74v3.45q0 1.09-.5 1.73-.5.64-1.5.64zm-.92-2.36q0 1.49.92 1.49t.92-1.5V20.7q0-.33-.04-.57-.03-.25-.13-.47-.1-.22-.28-.33-.2-.13-.47-.13-.27 0-.46.13-.2.11-.29.33-.1.22-.13.47-.04.24-.04.57z"/></g><path d="M28.6 22.46h3" fill="none" stroke="#e00" stroke-width=".53" marker-end="url(#a)"/><g style="line-height:1.25;-inkscape-font-specification:'Montserrat Bold'" aria-label="y1" font-weight="700" font-size="9.92" font-family="Oswald Regular" letter-spacing="-.23" word-spacing="0" stroke-width=".23"><path style="-inkscape-font-specification:'Oswald Regular, Bold'" d="M19.17 54.84v-.8q.7 0 .9-.14.2-.13.1-.56l-.18-.79-.57-2.44-.58-2.44h1.08l.77 4.29.74-4.29h1.08l-1.38 6.05q-.13.61-.58.86-.44.26-1.25.26zM24.59 53.4v-6.64l-.09.03-.2.05-.27.05-.3.06-.26.05-.2.04-.08.01v-.8q1.22-.32 1.66-.87h.8v8.03z"/></g><path d="M28.6 49.42h3" fill="none" stroke="#e00" stroke-width=".53" marker-end="url(#b)"/><g style="line-height:1.25;-inkscape-font-specification:'Montserrat Bold'" aria-label="y2" font-weight="700" font-size="9.92" font-family="Oswald Regular" letter-spacing="-.23" word-spacing="0" stroke-width=".23"><path style="-inkscape-font-specification:'Oswald Regular, Bold'" d="M19.17 84.13v-.8q.7 0 .9-.14.2-.14.1-.56l-.18-.79-.57-2.44-.58-2.44h1.08l.77 4.29.74-4.29h1.08l-1.38 6.05q-.13.6-.58.86-.44.26-1.25.26zM22.79 82.7v-.76l2.04-3.19.21-.33.22-.33.17-.3.15-.35.08-.36q.04-.2.04-.42 0-1.2-.8-1.2-.95 0-.95 1.48v.27h-1.07v-.27q0-1.14.47-1.74.46-.61 1.5-.61.95 0 1.43.54.49.54.49 1.54 0 .35-.06.64-.05.3-.2.6-.13.3-.24.46l-.32.52-.06.1-1.85 2.81h2.54v.9z"/></g><path d="M28.6 78.71h3" fill="none" stroke="#e00" stroke-width=".53" marker-end="url(#c)"/><g style="line-height:1.25;-inkscape-font-specification:'Montserrat Bold'" aria-label="y3" font-weight="700" font-size="9.92" font-family="Oswald Regular" letter-spacing="-.23" word-spacing="0" stroke-width=".23"><path style="-inkscape-font-specification:'Oswald Regular, Bold'" d="M19.17 113.41v-.8q.7 0 .9-.13.2-.14.1-.56l-.18-.8-.57-2.43-.58-2.44h1.08l.77 4.28.74-4.28h1.08l-1.38 6.05q-.13.6-.58.86-.44.25-1.25.25zM24.74 112.07q-.96 0-1.46-.54-.5-.55-.5-1.52v-.27h1.06v.17q0 .3.04.52.05.21.14.4.1.18.27.27.19.1.45.1.23 0 .4-.08.16-.07.26-.19.1-.13.16-.32.06-.2.08-.4.02-.21.02-.5 0-.68-.24-1.06t-.8-.42h-.15v-1.07h.13q.58-.02.82-.3.24-.27.24-.92 0-.59-.2-.9-.2-.3-.7-.3-.27 0-.46.1-.18.09-.28.27-.1.18-.14.4-.04.22-.04.52v.16h-1.06v-.26q0-.98.5-1.51.5-.55 1.48-.55.97 0 1.47.55.5.54.5 1.52 0 .71-.3 1.16-.31.44-.85.6.55.17.85.69.3.51.3 1.32 0 1.12-.48 1.74-.48.62-1.5.62z"/></g><path d="M28.6 108h3" fill="none" stroke="#e00" stroke-width=".53" marker-end="url(#d)"/><path d="M36.45 14.09v2.99" fill="none" stroke="#066b00" stroke-width=".53" marker-end="url(#e)"/><g style="line-height:1.25;-inkscape-font-specification:'Montserrat Bold'" aria-label="x0" font-weight="700" font-size="9.92" font-family="Oswald Regular" letter-spacing="-.23" word-spacing="0" stroke-width=".23"><path style="-inkscape-font-specification:'Oswald Regular, Bold'" d="M32.18 11.23l1.28-3.02L32.2 5.5h1.02l.84 1.82.75-1.82h1.04l-1.31 2.85 1.33 2.89h-1.01l-.9-1.95-.78 1.95zM38.15 11.31q-.99 0-1.49-.64-.5-.65-.5-1.73V5.49q0-1.11.49-1.74.49-.63 1.5-.63 1 0 1.5.63.49.63.49 1.74v3.45q0 1.09-.5 1.73-.5.64-1.5.64zm-.92-2.36q0 1.5.92 1.5t.92-1.5V5.48q0-.33-.04-.57-.04-.25-.13-.46-.1-.23-.29-.34-.19-.12-.46-.12-.28 0-.47.12-.19.11-.28.34-.1.21-.14.46-.03.24-.03.57z"/></g><path d="M99.95 14.09v2.99" fill="none" stroke="#066b00" stroke-width=".53" marker-end="url(#f)"/><g style="line-height:1.25;-inkscape-font-specification:'Montserrat Bold'" aria-label="x1" font-weight="700" font-size="9.92" font-family="Oswald Regular" letter-spacing="-.23" word-spacing="0" stroke-width=".23"><path style="-inkscape-font-specification:'Oswald Regular, Bold'" d="M95.68 11.23l1.28-3.02L95.7 5.5h1.02l.84 1.82.75-1.82h1.04l-1.31 2.85 1.33 2.89h-1.01l-.9-1.95-.78 1.95zM101.41 11.23V4.58l-.08.03-.2.04-.27.06-.3.06-.26.05-.2.04-.09.01v-.8q1.23-.32 1.66-.87h.8v8.03z"/></g><path d="M174.03 14.09v2.99" fill="none" stroke="#066b00" stroke-width=".53" marker-end="url(#g)"/><g style="line-height:1.25;-inkscape-font-specification:'Montserrat Bold'" aria-label="x2" font-weight="700" font-size="9.92" font-family="Oswald Regular" letter-spacing="-.23" word-spacing="0" stroke-width=".23"><path style="-inkscape-font-specification:'Oswald Regular, Bold'" d="M169.76 11.23l1.29-3.02-1.26-2.72h1.01l.84 1.82.75-1.82h1.04l-1.3 2.85 1.32 2.89h-1l-.9-1.95-.78 1.95zM173.7 11.23v-.76l2.04-3.19.21-.33.22-.33.17-.3q.1-.2.15-.35l.08-.36q.04-.2.04-.42 0-1.2-.8-1.2-.96 0-.96 1.48v.27h-1.06v-.27q0-1.14.47-1.74.46-.61 1.49-.61.96 0 1.44.54.49.54.49 1.54 0 .35-.06.65-.06.3-.2.6-.14.29-.24.46l-.32.5-.07.1-1.84 2.82h2.54v.9z"/></g><path d="M239.65 14.09v2.99" fill="none" stroke="#066b00" stroke-width=".53" marker-end="url(#h)"/><g style="line-height:1.25;-inkscape-font-specification:'Montserrat Bold'" aria-label="x3" font-weight="700" font-size="9.92" font-family="Oswald Regular" letter-spacing="-.23" word-spacing="0" stroke-width=".23"><path style="-inkscape-font-specification:'Oswald Regular, Bold'" d="M235.38 11.23l1.28-3.02-1.26-2.72h1.02l.84 1.82.75-1.82h1.04l-1.31 2.85 1.33 2.89h-1.01l-.9-1.95-.78 1.95zM241.27 11.31q-.96 0-1.47-.54-.5-.54-.5-1.52v-.27h1.06v.18q0 .3.05.51.04.21.13.4.1.18.28.27.18.1.45.1.23 0 .4-.07.16-.07.26-.2.1-.12.16-.31.06-.2.07-.4.03-.22.03-.5 0-.68-.25-1.07-.24-.38-.8-.42H241V6.4h.14q.57-.02.81-.3.25-.28.25-.92 0-.6-.2-.9-.2-.3-.7-.3-.28 0-.46.09t-.28.27q-.1.19-.14.4-.04.22-.05.53v.16h-1.06v-.27q0-.97.5-1.5.51-.55 1.48-.55t1.47.55q.5.54.5 1.52 0 .7-.3 1.15-.3.44-.84.6.54.17.84.7.3.5.3 1.31 0 1.12-.48 1.74-.47.62-1.5.62z"/></g></svg>