<svg xmlns="http://www.w3.org/2000/svg" viewBox="0 0 213.8 115.3" height="435.9" width="807.9"><defs><marker orient="auto" refY="0" refX="0" id="b" overflow="visible"><path d="M2.3 0l-3.5 2v-4z" fill-rule="evenodd" stroke="#000" stroke-width=".4pt"/></marker><marker orient="auto" refY="0" refX="0" id="a" overflow="visible"><path d="M-2.3 0l3.5-2v4z" fill-rule="evenodd" stroke="#000" stroke-width=".4pt"/></marker></defs><path fill="#c3ce8f" fill-rule="evenodd" stroke="#000" stroke-width="2" d="M18.5 18.6h78.2v78.2H18.5z"/><path fill="#8db7c0" fill-rule="evenodd" d="M35.1 35.1h45.2v45.2H35.1z"/><text y="61.1" x="83.1" style="line-height:1.25;-inkscape-font-specification:Montserrat" font-weight="400" font-size="8.5" font-family="Montserrat" letter-spacing="0" word-spacing="0" stroke-width=".3" transform="translate(-42.3 -1.6)"><tspan style="-inkscape-font-specification:Montserrat" y="61.1" x="83.1">Content</tspan></text><path fill="#f28828" fill-opacity=".6" fill-rule="evenodd" d="M97.6 17.5h18.5v80.3H97.6z"/><path fill="#c3ce8f" fill-rule="evenodd" stroke="#000" stroke-width="2" d="M117 18.6h78.2v78.2H117z"/><path fill="#8db7c0" fill-rule="evenodd" d="M133.5 35.1h45.2v45.2h-45.2z"/><text style="line-height:1.25;-inkscape-font-specification:Montserrat" x="181.5" y="61.1" font-weight="400" font-size="8.5" font-family="Montserrat" letter-spacing="0" word-spacing="0" stroke-width=".3" transform="translate(-42.3 -1.6)"><tspan x="181.5" y="61.1" style="-inkscape-font-specification:Montserrat">Content</tspan></text><path d="M143 93h12.5" fill="none" stroke="#000" marker-start="url(#a)" marker-end="url(#b)" transform="translate(-42.3 -1.6)"/><text y="109.5" x="135.2" style="line-height:1.25;-inkscape-font-specification:Montserrat" font-weight="400" font-size="8.5" font-family="Montserrat" letter-spacing="0" word-spacing="0" stroke-width=".3" transform="translate(-42.3 -1.6)"><tspan style="-inkscape-font-specification:Montserrat" y="109.5" x="135.2">Margin</tspan></text></svg>