<svg id="Capa_1" enable-background="new 0 0 512 512" height="512" viewBox="0 0 512 512" width="512" xmlns="http://www.w3.org/2000/svg" xmlns:xlink="http://www.w3.org/1999/xlink"><linearGradient id="SVGID_1_" gradientUnits="userSpaceOnUse" x1="256" x2="256" y1="512" y2="0"><stop offset="0" stop-color="#fd5900"/><stop offset="1" stop-color="#ffde00"/></linearGradient><g><g><path d="m165 151h61c8.284 0 15-6.716 15-15s-6.716-15-15-15h-61c-8.284 0-15 6.716-15 15s6.716 15 15 15zm182 150h-182c-8.284 0-15 6.716-15 15s6.716 15 15 15h182c8.284 0 15-6.716 15-15s-6.716-15-15-15zm0 60h-182c-8.284 0-15 6.716-15 15s6.716 15 15 15h182c8.284 0 15-6.716 15-15s-6.716-15-15-15zm0-120h-182c-8.284 0-15 6.716-15 15s6.716 15 15 15h182c8.284 0 15-6.716 15-15s-6.716-15-15-15zm150 181h-75v-362c0-33.084-26.916-60-60-60h-302c-33.084 0-60 26.916-60 60v15c0 8.284 6.716 15 15 15h75v362c0 33.084 26.916 60 60 60h302c33.084 0 60-26.916 60-60v-15c0-8.284-6.716-15-15-15zm-467-362c0-16.542 13.458-30 30-30s30 13.458 30 30zm120 422c-16.542 0-30-13.458-30-30v-392c0-10.925-2.949-21.167-8.072-30h250.072c16.542 0 30 13.458 30 30v392c0 10.925 2.949 21.167 8.072 30zm302 0c-16.542 0-30-13.458-30-30h60c0 16.542-13.458 30-30 30zm-105-301h-182c-8.284 0-15 6.716-15 15s6.716 15 15 15h182c8.284 0 15-6.716 15-15s-6.716-15-15-15z" fill="url(#SVGID_1_)"/></g></g></svg>